<?xml version="1.0" encoding="UTF-8" standalone="no"?>
<svg
   xmlns:dc="http://purl.org/dc/elements/1.1/"
   xmlns:cc="http://creativecommons.org/ns#"
   xmlns:rdf="http://www.w3.org/1999/02/22-rdf-syntax-ns#"
   xmlns:svg="http://www.w3.org/2000/svg"
   xmlns="http://www.w3.org/2000/svg"
   xmlns:sodipodi="http://sodipodi.sourceforge.net/DTD/sodipodi-0.dtd"
   xmlns:inkscape="http://www.inkscape.org/namespaces/inkscape"
   viewBox="0 0 854.31195 159.25801"
   id="svg4811"
   version="1.1"
   inkscape:version="0.91 r13725"
   sodipodi:docname="meander.svg"
   width="854.31195"
   height="159.25801">
  <metadata
     id="metadata4821">
    <rdf:RDF>
      <cc:Work
         rdf:about="">
        <dc:format>image/svg+xml</dc:format>
        <dc:type
           rdf:resource="http://purl.org/dc/dcmitype/StillImage" />
        <dc:title></dc:title>
      </cc:Work>
    </rdf:RDF>
  </metadata>
  <defs
     id="defs4819" />
  <sodipodi:namedview
     pagecolor="#ffffff"
     bordercolor="#666666"
     borderopacity="1"
     objecttolerance="10"
     gridtolerance="10"
     guidetolerance="10"
     inkscape:pageopacity="0"
     inkscape:pageshadow="2"
     inkscape:window-width="1920"
     inkscape:window-height="1017"
     id="namedview4817"
     showgrid="false"
     inkscape:zoom="0.5"
     inkscape:cx="211.38664"
     inkscape:cy="-248.22853"
     inkscape:window-x="-8"
     inkscape:window-y="-8"
     inkscape:window-maximized="1"
     inkscape:current-layer="svg4811"
     fit-margin-top="0"
     fit-margin-left="0"
     fit-margin-right="0"
     fit-margin-bottom="0" />
  <g
     transform="translate(-117.62502,-622.99618)"
     id="g4813">
    <path
       d="m 147.26,727.79 c 11.299,-13.154 9.4786,-31.339 15.432,-44.676 15.418,-34.543 72.797,-27.005 72.98,10.377 0.1045,21.396 -24.905,41.061 -41.41,20.942 -10.854,-13.231 8.8433,-24.363 13.021,-14.377 3.8116,9.111 14.765,1.3659 12.422,-9.9884 -3.8194,-18.515 -36.757,-13.479 -43.819,2.5665 -21.977,49.935 41.61,68.021 70.688,35.156 11.491,-12.987 9.4786,-31.339 15.432,-44.676 15.418,-34.543 72.797,-27.005 72.98,10.377 0.1045,21.396 -24.905,41.061 -41.41,20.942 -10.854,-13.231 8.8433,-24.363 13.021,-14.377 3.8116,9.111 14.765,1.3659 12.422,-9.9884 -3.8194,-18.515 -36.757,-13.479 -43.819,2.5665 -21.977,49.935 41.61,68.021 70.688,35.156 11.491,-12.987 9.4786,-31.339 15.432,-44.676 15.418,-34.543 72.797,-27.005 72.98,10.377 0.1045,21.396 -24.905,41.061 -41.41,20.942 -10.854,-13.231 8.8433,-24.363 13.021,-14.377 3.8116,9.111 14.765,1.3659 12.422,-9.9884 -3.8194,-18.515 -36.757,-13.479 -43.819,2.5665 -21.977,49.935 41.61,68.021 70.688,35.156 11.491,-12.987 9.4786,-31.339 15.432,-44.676 15.418,-34.543 72.797,-27.005 72.98,10.377 0.1045,21.396 -24.905,41.061 -41.41,20.942 -10.854,-13.231 8.8433,-24.363 13.021,-14.377 3.8116,9.111 14.765,1.3659 12.422,-9.9884 -3.8194,-18.515 -36.757,-13.479 -43.819,2.5665 -21.977,49.935 41.61,68.021 70.688,35.156 11.491,-12.987 9.4786,-31.339 15.432,-44.676 15.418,-34.543 72.797,-27.005 72.98,10.377 0.1045,21.396 -24.905,41.061 -41.41,20.942 -10.854,-13.231 8.8433,-24.363 13.021,-14.377 3.8116,9.111 14.765,1.3659 12.422,-9.9884 -3.8194,-18.515 -36.757,-13.479 -43.819,2.5665 -21.977,49.935 41.61,68.021 70.688,35.156 11.491,-12.987 9.4786,-31.339 15.432,-44.676 15.418,-34.543 72.797,-27.005 72.98,10.377 0.1045,21.396 -24.905,41.061 -41.41,20.942 -10.854,-13.231 8.8433,-24.363 13.021,-14.377 3.8116,9.111 14.765,1.3659 12.422,-9.9884 -3.8194,-18.515 -36.757,-13.479 -43.819,2.5665 -21.977,49.935 41.61,68.021 70.688,35.156 11.491,-12.987 9.4786,-31.339 15.432,-44.676 15.418,-34.543 72.797,-27.005 72.98,10.377 0.1045,21.396 -24.905,41.061 -41.41,20.942 -10.854,-13.231 8.8433,-24.363 13.021,-14.377 3.8116,9.111 14.765,1.3659 12.422,-9.9884 -3.8194,-18.515 -36.757,-13.479 -43.819,2.5665 -21.977,49.935 41.61,68.021 70.688,35.156 11.491,-12.987 9.4786,-31.339 15.432,-44.676 15.418,-34.543 72.797,-27.005 72.98,10.377 0.1045,21.396 -24.905,41.061 -41.41,20.942 -10.854,-13.231 8.8433,-24.363 13.021,-14.377 3.8116,9.111 14.765,1.3659 12.422,-9.9884 -3.8194,-18.515 -36.757,-13.479 -43.819,2.5665 -21.977,49.935 41.42,67.851 70.688,35.156"
       id="path4815"
       inkscape:connector-curvature="0"
       style="fill:none;stroke:#0000ff;stroke-width:10.12699986;stroke-linejoin:round" />
  </g>
</svg>
